<svg xmlns="http://www.w3.org/2000/svg" aria-hidden="true" style="position:absolute;width:0;height:0;overflow:hidden">
  <defs>
    <symbol id="icon-antenna" viewBox="0 0 32 32">
      <path fill="#2e2f42" d="m30.773 22.098-8.443-8.505.937-4.615c.242.094.499.144.758.146h.006a2.159 2.159 0 1 0-2.008-1.435l-4.96.605L8.972.161a.534.534 0 0 0-.377-.16.532.532 0 0 0-.373.155L6.709 1.66a.534.534 0 0 0 0 .754l.814.826a14.943 14.943 0 0 0 2.519 17.663.513.513 0 0 0 .146.098c-.034.18-.051.364-.052.547v6.187h-6.4a2.67 2.67 0 0 0-2.667 2.667v1.067c0 .295.239.533.533.533h24.533a.533.533 0 0 0 .533-.533v-1.067a2.67 2.67 0 0 0-2.667-2.667h-6.4v-2.742a15.09 15.09 0 0 0 3.049.32 14.854 14.854 0 0 0 7.04-1.783l.818.823a.534.534 0 0 0 .377.16.532.532 0 0 0 .373-.155l1.513-1.504a.534.534 0 0 0 0-.754zM23.28 6.233a1.067 1.067 0 1 1 .753 1.822h-.003a1.067 1.067 0 0 1-.747-1.823h-.002zm-1.256 3.505-.598 2.946-1.175-1.182 1.774-1.763zm-.605-.902-1.92 1.909-1.485-1.493 3.405-.415zM24.004 28.8a1.6 1.6 0 0 1 1.6 1.6v.533H2.137V30.4a1.6 1.6 0 0 1 1.6-1.6h20.267zm-7.467-2.133v1.067h-5.333v-1.067h5.333zM11.204 25.6v-4.053c0-1.294 1.196-2.347 2.667-2.347s2.667 1.053 2.667 2.347V25.6h-5.333zm6.4-1.696v-2.357c0-1.882-1.675-3.413-3.733-3.413a3.8 3.8 0 0 0-3.281 1.786A13.87 13.87 0 0 1 8.311 4.033l18.602 18.708a13.818 13.818 0 0 1-9.309 1.163zm11.289-.684L7.836 2.039l.755-.752 7.935 7.98c.004 0 .006.007.01.01l13.115 13.191-.757.752z" style="fill:var(--color1, #2e2f42)"/>
      <path fill="#4d5ae5" d="M13.876 20.267h-.005a1.6 1.6 0 1 0-.004 3.2h.005a1.6 1.6 0 1 0 .004-3.2zm.373 1.978a.534.534 0 0 1-.752-.756.534.534 0 0 1 .373-.155.534.534 0 0 1 .374.911h.005z" style="fill:var(--color2, #4d5ae5)"/>
    </symbol>
    <symbol id="icon-astronaut" viewBox="0 0 32 32">
      <path fill="#4d5ae5" d="M31.974 4.524a.534.534 0 0 0-.43-.363l-1.91-.278-.855-1.731c-.179-.365-.777-.365-.956 0l-.855 1.731-1.91.278a.535.535 0 0 0-.296.91l1.383 1.348-.326 1.903c-.034.2.048.402.212.522a.53.53 0 0 0 .562.04l1.709-.899 1.709.899a.536.536 0 0 0 .775-.563l-.326-1.903 1.383-1.348a.536.536 0 0 0 .135-.547zm-2.463 1.327a.534.534 0 0 0-.153.472l.191 1.114-1-.526a.533.533 0 0 0-.498 0l-1.001.526.191-1.114a.534.534 0 0 0-.153-.472l-.81-.789 1.119-.163a.532.532 0 0 0 .402-.292l.5-1.013.5 1.013a.535.535 0 0 0 .402.292l1.119.163-.809.789zM26.133 20.522h-1.067v1.067h1.067v-1.067zM26.133 22.656h-1.067v1.067h1.067v-1.067zM27.2 21.589h-1.067v1.067H27.2v-1.067zM25.067 21.589H24v1.067h1.067v-1.067zM22.4 26.389h-1.067v1.067H22.4v-1.067zM22.4 28.522h-1.067v1.067H22.4v-1.067zM23.467 27.456H22.4v1.067h1.067v-1.067zM21.333 27.456h-1.067v1.067h1.067v-1.067zM16 24.256h-1.067v1.067H16v-1.067zM16 26.389h-1.067v1.067H16v-1.067zM17.067 25.322H16v1.067h1.067v-1.067zM14.933 25.322h-1.067v1.067h1.067v-1.067zM5.867 6.122H4.8v1.067h1.067V6.122zM5.867 8.255H4.8v1.067h1.067V8.255z" style="fill:var(--color2, #4d5ae5)"/>
      <path fill="#4d5ae5" d="M6.933 7.189H5.866v1.067h1.067V7.189zM4.8 7.189H3.733v1.067H4.8V7.189z" style="fill:var(--color2, #4d5ae5)"/>
      <path fill="#2e2f42" d="M24.715 14.159a1.775 1.775 0 0 0-1.188-.705 1.778 1.778 0 0 0-1.34.352l-1.252.96-1.898 1.417-1.358-.541c2.421-1.086 4.114-3.508 4.114-6.32 0-3.823-3.123-6.933-6.961-6.933s-6.961 3.11-6.961 6.933a6.86 6.86 0 0 0 1.12 3.758l-2.764-.024h-.005c-.009 0-.015.004-.023.005a.515.515 0 0 0-.155.031l-.038.013c-.006.003-.013.003-.019.006l-3.233 1.596-.001.001-1.893.911a.397.397 0 0 0-.063.035 1.779 1.779 0 0 0-.598 2.295c.22.429.595.745 1.056.889a1.776 1.776 0 0 0 1.378-.128l1.388-.738 2.264-1.169 1.357-.008L2.2 22.211l-.002.001-1.339 1.333c-.316.315-.49.732-.49 1.178s.174.863.49 1.179c.325.323.752.485 1.179.485s.854-.162 1.18-.485l1.314-1.309 1.741-1.3.901.897-1.762 1.754-.002.001-1.339 1.333c-.316.315-.49.732-.49 1.178s.174.863.49 1.179c.325.323.753.485 1.18.485s.855-.162 1.18-.485l3.482-3.467.001-.002 1.01-1-.004-.004c.006-.006.015-.009.022-.015l5.166-5.658 3.471.494a.52.52 0 0 0 .262-.033c.018-.006.033-.015.05-.023.019-.01.039-.015.058-.027l3.213-2.133c.012-.008.018-.021.029-.029.013-.01.029-.014.041-.026l1.271-1.191c.662-.62.753-1.635.212-2.362zM2.13 17.77a.714.714 0 0 1-.558.052.717.717 0 0 1-.213-1.26l1.314-.632.449 1.313-.992.527zm3.498-1.828-1.548.8-.439-1.283 2.027-1.001-.04 1.484zm15.099-6.62a5.79 5.79 0 0 1-.599 2.559l-4.181-1.899a1.863 1.863 0 0 0-.788-1.388l1.464-4.86c2.378.756 4.105 2.974 4.105 5.588zm-11.789 0c0-3.235 2.644-5.867 5.894-5.867.253 0 .5.021.745.052l-1.432 4.754c-.019-.001-.037-.006-.057-.006-1.033 0-1.873.837-1.873 1.867s.84 1.867 1.873 1.867c.694 0 1.294-.383 1.618-.945l3.862 1.755a5.894 5.894 0 0 1-4.737 2.39c-3.25 0-5.894-2.632-5.894-5.867zm5.956.8c0 .441-.362.8-.806.8s-.806-.359-.806-.8c0-.441.362-.8.806-.8s.806.359.806.8zM2.465 25.146a.608.608 0 0 1-.854.001.592.592 0 0 1 0-.844l.962-.958.851.848-.959.955zm3.214 3.734a.608.608 0 0 1-.855.001.592.592 0 0 1 0-.844l.963-.959.852.848-.96.955zm3.481-3.469-.002.001-1.765 1.76-.852-.848 1.763-1.755.002-.001c.04-.04.065-.088.09-.135.007-.014.02-.026.026-.04.017-.041.019-.085.026-.129.003-.025.014-.047.014-.073 0-.036-.013-.07-.02-.106-.006-.032-.006-.065-.019-.095a.55.55 0 0 0-.091-.138c-.01-.012-.014-.027-.025-.038h-.001l-.001-.002-1.607-1.6c-.017-.017-.039-.024-.058-.038a.507.507 0 0 0-.087-.058.515.515 0 0 0-.093-.033.507.507 0 0 0-.103-.02.5.5 0 0 0-.095.005.53.53 0 0 0-.104.02.477.477 0 0 0-.094.045c-.02.011-.042.015-.061.029L4.23 23.486l-.901-.897 2.399-2.386 4.361 4.289-.928.919zm6.819-7.017c-.015-.002-.03.004-.045.003a.556.556 0 0 0-.3.075.492.492 0 0 0-.083.061c-.013.011-.028.017-.04.029l-4.698 5.146-4.328-4.257 2.833-2.818a.534.534 0 0 0-.379-.911v-.001l-2.219.013.028-1.607 3.104.027a6.947 6.947 0 0 0 4.981 2.101c.437 0 .864-.045 1.279-.123.04.032.079.065.13.085l2.41.96.152.758.178.885-3.003-.427zm4.041.178-.313-1.558 1.446-1.08.947 1.257-2.08 1.381zm3.754-2.831-.838.785-.931-1.236.831-.637a.735.735 0 0 1 .543-.143.718.718 0 0 1 .48.284.713.713 0 0 1-.085.947z" style="fill:var(--color1, #2e2f42)"/>
      <path fill="#2e2f42" d="m13.602 18.544-2.143-2.133a.534.534 0 0 0-.753 0l-2.142 2.133a.537.537 0 0 0 0 .756l2.142 2.133a.536.536 0 0 0 .753 0l2.143-2.133a.535.535 0 0 0 0-.756zm-2.519 1.759-1.387-1.381 1.387-1.381 1.387 1.381-1.387 1.381zM17.164 5.071l-.258 1.036c.071.018 1.738.452 1.738 2.149h1.067c0-2.017-1.666-2.965-2.547-3.185zM19.711 9.322h-1.067v1.067h1.067V9.322z" style="fill:var(--color1, #2e2f42)"/>
    </symbol>
    <symbol id="icon-clock" viewBox="0 0 32 32">
      <path fill="#2e2f42" d="M31.297 15.301C31.295 6.849 24.442-.002 15.989 0S.686 6.855.688 15.308a15.304 15.304 0 0 0 10.649 14.576.662.662 0 0 0 .529-.065.637.637 0 0 0 .283-.356l3.865-12.25a1.912 1.912 0 1 0-.84-3.635l-5.106-5.107a.637.637 0 0 0-.902.902l5.103 5.109a1.876 1.876 0 0 0 .536 2.309l-3.683 11.673C3.844 25.783.118 17.71 2.799 10.432S13.553-.572 20.831 2.109c7.278 2.681 11.004 10.754 8.323 18.032a14.042 14.042 0 0 1-7.462 7.973l-.398-1.874a.637.637 0 0 0-1.049-.344l-3.837 3.426a.637.637 0 0 0 .231 1.084l4.899 1.564a.638.638 0 0 0 .819-.74l-.391-1.839a15.255 15.255 0 0 0 9.329-14.089zm-15.305-.637a.638.638 0 1 1 0 1.277.638.638 0 0 1 0-1.277zm2.101 14.864 2.184-1.948.603 2.84-2.787-.892z" style="fill:var(--color1, #2e2f42)"/>
      <path fill="#4d5ae5" d="M15.354 3.185V4.46a.638.638 0 1 0 1.276 0V3.185a.638.638 0 0 0-1.276 0zM3.876 14.664a.638.638 0 0 0 0 1.276h1.275a.638.638 0 1 0 0-1.276H3.876zM28.108 15.939a.638.638 0 1 0 0-1.276h-1.275a.638.638 0 0 0 0 1.276h1.275z" style="fill:var(--color2, #4d5ae5)"/>
    </symbol>
    <symbol id="icon-diagram" viewBox="0 0 32 32">
      <path fill="#4d5ae5" d="M14.925 14.965h1.066v4.798h-1.066v-4.797zM19.19 17.097h1.066v2.665H19.19v-2.665zM10.661 18.696h1.066v1.066h-1.066v-1.066zM7.463 18.163h1.066v1.599H7.463v-1.599z" style="fill:var(--color2, #4d5ae5)"/>
      <path fill="#2e2f42" d="M1.599 28.291h25.587a1.6 1.6 0 0 0 1.599-1.599V24.56a1.6 1.6 0 0 0-1.599-1.599h-.533V9.668L29.681 6.8a1.608 1.608 0 1 0-.746-.763L26.654 8.2V6.97a1.6 1.6 0 0 0-1.599-1.599H3.733A1.6 1.6 0 0 0 2.134 6.97v15.992h-.533a1.6 1.6 0 0 0-1.599 1.599v2.132a1.6 1.6 0 0 0 1.599 1.599zM30.384 4.837a.533.533 0 1 1 0 1.067.533.533 0 0 1 0-1.067zM3.198 6.969c0-.294.239-.533.533-.533h21.322c.294 0 .533.239.533.533v2.239l-1.066 1.013V8.035a.533.533 0 0 0-.533-.533H4.797a.533.533 0 0 0-.533.533v13.326c0 .294.239.533.533.533h19.19a.533.533 0 0 0 .533-.533v-9.674l1.066-1.01v12.284H3.198V6.969zm4.798 6.93a1.598 1.598 0 1 0 1.107 2.749l1.853.93a.532.532 0 0 0 .636-.123l3.939-4.431 3.872 2.901a.533.533 0 0 0 .686-.039l3.365-3.188v8.131H5.33V8.569h18.124v2.66l-3.771 3.572-3.904-2.927a.533.533 0 0 0-.718.072l-3.993 4.493-1.493-.746c.011-.064.018-.129.02-.193a1.6 1.6 0 0 0-1.599-1.599zm.533 1.599a.533.533 0 1 1-1.067 0 .533.533 0 0 1 1.067 0zm3.198 8.529h5.331v.533a.533.533 0 0 1-.533.533h-4.264a.533.533 0 0 1-.533-.533v-.533zm-10.661.533c0-.294.239-.533.533-.533h9.062v.533a1.6 1.6 0 0 0 1.599 1.599h4.264a1.6 1.6 0 0 0 1.599-1.599v-.533h9.062c.294 0 .533.239.533.533v2.132a.533.533 0 0 1-.533.533H1.598a.533.533 0 0 1-.533-.533V24.56z" style="fill:var(--color1, #2e2f42)"/>
    </symbol>
    <symbol id="icon-facebook" viewBox="0 0 32 32">
      <path fill="#f4f4fd" d="M21.329 5.313h2.921V.225C23.746.156 22.013 0 19.994 0c-4.212 0-7.097 2.649-7.097 7.519V12H8.249v5.688h4.648V32h5.699V17.689h4.46l.708-5.688h-5.169V8.082c.001-1.644.444-2.769 2.735-2.769z" style="fill:var(--color3, #f4f4fd)"/>
    </symbol>
    <symbol id="icon-instagram" viewBox="0 0 32 32">
      <path fill="#f4f4fd" d="M31.969 9.408c-.075-1.7-.35-2.869-.744-3.882a7.803 7.803 0 0 0-1.85-2.838A7.867 7.867 0 0 0 26.543.844C25.524.45 24.361.175 22.661.1 20.948.019 20.404 0 16.06 0s-4.888.019-6.595.094c-1.7.075-2.869.35-3.882.744a7.803 7.803 0 0 0-2.838 1.85A7.867 7.867 0 0 0 .901 5.52C.507 6.539.232 7.702.157 9.402c-.081 1.713-.1 2.257-.1 6.601s.019 4.888.094 6.595c.075 1.7.35 2.869.744 3.882a7.895 7.895 0 0 0 1.85 2.838 7.867 7.867 0 0 0 2.832 1.844c1.019.394 2.182.669 3.882.744 1.706.075 2.25.094 6.595.094s4.888-.019 6.595-.094c1.7-.075 2.869-.35 3.882-.744a8.181 8.181 0 0 0 4.682-4.682c.394-1.019.669-2.182.744-3.882.075-1.707.094-2.25.094-6.595s-.006-4.888-.081-6.595zm-2.882 13.065c-.069 1.563-.331 2.407-.55 2.969a5.31 5.31 0 0 1-3.038 3.038c-.563.219-1.413.481-2.969.55-1.688.075-2.194.094-6.464.094s-4.782-.019-6.464-.094c-1.563-.069-2.407-.331-2.969-.55a4.926 4.926 0 0 1-1.838-1.194 4.974 4.974 0 0 1-1.194-1.838c-.219-.563-.481-1.413-.55-2.969-.075-1.688-.094-2.194-.094-6.464s.019-4.782.094-6.464c.069-1.563.331-2.407.55-2.969a4.868 4.868 0 0 1 1.2-1.838A4.974 4.974 0 0 1 6.639 3.55c.563-.219 1.413-.481 2.969-.55 1.688-.075 2.194-.094 6.464-.094 4.276 0 4.782.019 6.464.094 1.563.069 2.407.331 2.969.55a4.914 4.914 0 0 1 1.838 1.194 4.974 4.974 0 0 1 1.194 1.838c.219.563.481 1.413.55 2.969.075 1.688.094 2.194.094 6.464s-.019 4.77-.094 6.458z" style="fill:var(--color3, #f4f4fd)"/>
      <path fill="#f4f4fd" d="M16.059 7.783c-4.538 0-8.22 3.682-8.22 8.22s3.682 8.22 8.22 8.22 8.22-3.682 8.22-8.22-3.682-8.22-8.22-8.22zm0 13.552a5.333 5.333 0 0 1 0-10.664 5.333 5.333 0 0 1 0 10.664zM26.524 7.458a1.919 1.919 0 1 1-3.838 0 1.919 1.919 0 0 1 3.838 0z" style="fill:var(--color3, #f4f4fd)"/>
    </symbol>
    <symbol id="icon-linkedin" viewBox="0 0 32 32">
      <path fill="#f4f4fd" d="M31.992 32v-.001H32V20.263c0-5.741-1.236-10.164-7.948-10.164-3.227 0-5.392 1.771-6.276 3.449h-.093v-2.913h-6.364v21.364h6.627V21.42c0-2.785.528-5.479 3.977-5.479 3.399 0 3.449 3.179 3.449 5.657v10.401h6.62zM.528 10.636h6.635V32H.528V10.636zM3.843 0C1.722 0 0 1.721 0 3.843s1.721 3.879 3.843 3.879c2.121 0 3.843-1.757 3.843-3.879A3.846 3.846 0 0 0 3.843 0z" style="fill:var(--color3, #f4f4fd)"/>
    </symbol>
    <symbol id="icon-twitter" viewBox="0 0 32 32">
      <path fill="#f4f4fd" d="M32 6.078c-1.19.522-2.458.868-3.78 1.036a6.523 6.523 0 0 0 2.886-3.626 13.11 13.11 0 0 1-4.16 1.588A6.574 6.574 0 0 0 22.154 3c-3.632 0-6.556 2.948-6.556 6.562 0 .52.044 1.02.152 1.496-5.454-.266-10.28-2.88-13.522-6.862a6.605 6.605 0 0 0-.898 3.316 6.57 6.57 0 0 0 2.914 5.452 6.479 6.479 0 0 1-2.964-.808v.072c0 3.188 2.274 5.836 5.256 6.446a6.548 6.548 0 0 1-1.72.216 5.8 5.8 0 0 1-1.242-.112c.85 2.598 3.262 4.508 6.13 4.57a13.182 13.182 0 0 1-8.134 2.798c-.538 0-1.054-.024-1.57-.09A18.469 18.469 0 0 0 10.064 29c12.072 0 18.672-10 18.672-18.668 0-.29-.01-.57-.024-.848A13.087 13.087 0 0 0 32 6.078z" style="fill:var(--color3, #f4f4fd)"/>
    </symbol>
    <symbol id="icon-social-media" viewBox="0 0 234 32">
      <path fill="#fff" d="M17.577 22.327c0-.577-.09-1.09-.269-1.538-.167-.449-.468-.859-.904-1.231s-1.051-.731-1.846-1.077c-.782-.359-1.782-.724-3-1.096a33.21 33.21 0 0 1-3.692-1.365c-1.115-.513-2.09-1.103-2.923-1.769-.833-.679-1.481-1.455-1.942-2.327-.462-.885-.692-1.904-.692-3.058 0-1.141.237-2.179.712-3.115a7.258 7.258 0 0 1 2.058-2.423c.897-.692 1.955-1.224 3.173-1.596 1.218-.385 2.564-.577 4.038-.577 2.077 0 3.865.385 5.365 1.154 1.513.769 2.673 1.801 3.481 3.096a7.854 7.854 0 0 1 1.231 4.288h-4.788c0-.923-.199-1.737-.596-2.442-.385-.718-.974-1.282-1.769-1.692-.782-.41-1.776-.615-2.981-.615-1.141 0-2.09.173-2.846.519s-1.321.814-1.692 1.404a3.67 3.67 0 0 0-.558 2c0 .526.122 1.006.365 1.442.244.423.615.82 1.115 1.192.5.359 1.128.699 1.885 1.019s1.647.628 2.673.923c1.551.462 2.904.974 4.058 1.538 1.154.551 2.115 1.179 2.885 1.885s1.346 1.506 1.731 2.404c.385.885.577 1.891.577 3.019 0 1.179-.237 2.244-.712 3.192a6.893 6.893 0 0 1-2.038 2.404c-.872.654-1.923 1.16-3.154 1.519-1.218.346-2.577.519-4.077.519-1.346 0-2.673-.179-3.981-.538a11.732 11.732 0 0 1-3.538-1.635 8.434 8.434 0 0 1-2.538-2.769c-.628-1.115-.942-2.417-.942-3.904h4.827c0 .91.154 1.686.462 2.327a4.294 4.294 0 0 0 1.327 1.577 5.964 5.964 0 0 0 1.962.885 9.818 9.818 0 0 0 2.423.288c1.128 0 2.07-.16 2.827-.481.769-.32 1.346-.769 1.731-1.346s.577-1.244.577-2zM26.134 19.365v-.442c0-1.5.218-2.891.654-4.173.436-1.295 1.064-2.417 1.885-3.365a8.498 8.498 0 0 1 3.039-2.231c1.205-.538 2.564-.808 4.077-.808 1.526 0 2.885.269 4.077.808a8.473 8.473 0 0 1 3.058 2.231c.833.949 1.468 2.071 1.904 3.365.436 1.282.654 2.673.654 4.173v.442c0 1.5-.218 2.891-.654 4.173s-1.071 2.404-1.904 3.365a8.817 8.817 0 0 1-3.039 2.231c-1.192.526-2.545.788-4.058.788-1.526 0-2.891-.263-4.096-.788a8.823 8.823 0 0 1-3.039-2.231c-.833-.961-1.468-2.083-1.904-3.365s-.654-2.673-.654-4.173zm4.634-.442v.442c0 .936.096 1.82.288 2.654s.494 1.564.904 2.192c.41.628.936 1.122 1.577 1.481s1.404.538 2.288.538c.859 0 1.602-.179 2.231-.538.641-.359 1.167-.853 1.577-1.481s.712-1.359.904-2.192c.205-.833.308-1.718.308-2.654v-.442c0-.923-.102-1.795-.308-2.615a6.727 6.727 0 0 0-.923-2.212 4.411 4.411 0 0 0-1.577-1.5c-.628-.372-1.378-.558-2.25-.558s-1.628.186-2.269.558c-.628.359-1.148.859-1.558 1.5s-.712 1.378-.904 2.212c-.192.82-.288 1.692-.288 2.615zM58.652 26.231c.756 0 1.436-.147 2.038-.442a3.872 3.872 0 0 0 1.481-1.269c.385-.538.596-1.16.635-1.865h4.365c-.026 1.346-.423 2.571-1.192 3.673s-1.789 1.981-3.058 2.635c-1.269.641-2.673.961-4.212.961-1.59 0-2.974-.269-4.154-.808-1.179-.551-2.16-1.308-2.942-2.269s-1.372-2.07-1.769-3.327c-.385-1.256-.577-2.603-.577-4.038v-.673c0-1.436.192-2.782.577-4.038.397-1.269.987-2.385 1.769-3.346s1.763-1.712 2.942-2.25c1.18-.551 2.558-.827 4.135-.827 1.667 0 3.128.333 4.385 1a7.384 7.384 0 0 1 2.961 2.75c.731 1.167 1.109 2.526 1.135 4.077h-4.365a4.644 4.644 0 0 0-.577-2.077 3.814 3.814 0 0 0-1.423-1.5c-.603-.372-1.327-.558-2.173-.558-.936 0-1.712.192-2.327.577a3.887 3.887 0 0 0-1.442 1.538 7.502 7.502 0 0 0-.75 2.173 14.187 14.187 0 0 0-.211 2.481v.673c0 .859.071 1.692.211 2.5s.385 1.532.731 2.173a4.247 4.247 0 0 0 1.462 1.519c.615.372 1.397.558 2.346.558zM76.479 8.731v20.808h-4.654V8.731h4.654zm-4.962-5.462c0-.705.231-1.288.692-1.75.474-.474 1.128-.712 1.962-.712.82 0 1.468.237 1.942.712.474.462.712 1.045.712 1.75 0 .692-.237 1.269-.712 1.731s-1.122.692-1.942.692c-.833 0-1.487-.231-1.962-.692-.462-.462-.692-1.038-.692-1.731zM94.074 25.365v-9.923c0-.744-.135-1.385-.404-1.923s-.679-.955-1.231-1.25c-.538-.295-1.218-.442-2.038-.442-.756 0-1.41.128-1.962.385s-.981.603-1.288 1.038-.462.93-.462 1.481h-4.615c0-.821.199-1.615.596-2.385s.974-1.455 1.731-2.058 1.66-1.077 2.712-1.423c1.051-.346 2.231-.519 3.538-.519 1.564 0 2.949.263 4.154.788 1.218.526 2.173 1.321 2.865 2.385.705 1.051 1.058 2.372 1.058 3.962v9.25c0 .949.064 1.801.192 2.558.141.744.34 1.391.596 1.942v.308h-4.75c-.218-.5-.391-1.135-.519-1.904a15.595 15.595 0 0 1-.173-2.269zm.673-8.48.039 2.865h-3.327c-.859 0-1.615.083-2.269.25-.654.154-1.199.385-1.634.692s-.763.679-.981 1.115c-.218.436-.327.929-.327 1.481s.128 1.058.385 1.519c.256.449.628.801 1.115 1.058.5.256 1.103.385 1.808.385.949 0 1.775-.192 2.481-.577.718-.398 1.282-.878 1.692-1.442.41-.577.628-1.122.654-1.635l1.5 2.058c-.154.526-.417 1.09-.788 1.692s-.859 1.18-1.462 1.731c-.59.539-1.301.981-2.135 1.327-.82.346-1.769.519-2.846.519-1.359 0-2.571-.269-3.635-.808-1.064-.551-1.897-1.288-2.5-2.211-.603-.936-.904-1.994-.904-3.173 0-1.103.205-2.077.615-2.923a5.735 5.735 0 0 1 1.846-2.154c.82-.577 1.821-1.013 3-1.308 1.18-.308 2.526-.462 4.039-.462h3.634zM109.323 0v29.538h-4.654V0h4.654zM130.418 12.962v16.577h-4.635V8.731h4.365l.269 4.231zm-.75 5.403-1.577-.019c0-1.436.179-2.763.538-3.981s.885-2.276 1.577-3.173a6.926 6.926 0 0 1 2.577-2.096c1.039-.5 2.237-.75 3.596-.75.949 0 1.814.141 2.596.423a5.15 5.15 0 0 1 2.058 1.288c.59.59 1.039 1.346 1.346 2.269.321.923.481 2.038.481 3.346v13.865h-4.635V16.075c0-1.013-.154-1.808-.462-2.385-.295-.577-.724-.987-1.289-1.231-.551-.256-1.212-.385-1.981-.385-.872 0-1.615.167-2.231.5-.603.333-1.096.788-1.481 1.365s-.667 1.244-.846 2-.269 1.564-.269 2.423zm12.904-1.23-2.173.481c0-1.256.173-2.442.519-3.558.359-1.128.878-2.115 1.558-2.962.692-.859 1.545-1.532 2.558-2.019s2.173-.731 3.481-.731c1.064 0 2.013.147 2.846.442.846.282 1.564.731 2.154 1.346s1.039 1.417 1.346 2.404c.308.974.462 2.154.462 3.538v13.462h-4.654V16.057c0-1.051-.154-1.865-.462-2.442-.295-.577-.718-.974-1.269-1.192-.551-.231-1.212-.346-1.981-.346-.718 0-1.352.135-1.904.404a3.78 3.78 0 0 0-1.365 1.096 4.883 4.883 0 0 0-.846 1.596 6.828 6.828 0 0 0-.269 1.962zM170.051 29.923c-1.538 0-2.929-.25-4.173-.75-1.231-.513-2.282-1.224-3.154-2.135-.859-.91-1.519-1.981-1.981-3.212s-.692-2.558-.692-3.981v-.769c0-1.628.237-3.103.712-4.423s1.135-2.449 1.981-3.385c.846-.949 1.846-1.673 3-2.173s2.404-.75 3.75-.75c1.487 0 2.788.25 3.904.75s2.038 1.205 2.769 2.115c.744.897 1.295 1.968 1.654 3.212.372 1.244.558 2.615.558 4.115v1.981h-16.077v-3.327h11.5v-.365a6.51 6.51 0 0 0-.5-2.346c-.295-.731-.75-1.321-1.365-1.769s-1.436-.673-2.462-.673c-.769 0-1.455.167-2.058.5-.59.321-1.083.788-1.481 1.404s-.705 1.359-.923 2.231c-.205.859-.308 1.827-.308 2.904v.769c0 .91.122 1.756.365 2.538.256.769.628 1.442 1.115 2.019s1.077 1.032 1.769 1.366c.692.32 1.481.481 2.365.481 1.115 0 2.109-.224 2.981-.673s1.628-1.083 2.269-1.904l2.442 2.365c-.449.654-1.032 1.282-1.75 1.885-.718.59-1.596 1.07-2.635 1.442-1.026.372-2.218.558-3.577.558zM195.474 25.231V0h4.654v29.538h-4.212l-.442-4.308zm-13.539-5.866v-.404c0-1.577.186-3.013.558-4.308.372-1.308.91-2.429 1.615-3.365a7.091 7.091 0 0 1 2.577-2.173c1.013-.513 2.154-.769 3.423-.769 1.256 0 2.359.244 3.308.731s1.756 1.186 2.423 2.096c.667.897 1.199 1.974 1.596 3.231.398 1.244.68 2.628.846 4.154v1.288c-.167 1.487-.449 2.846-.846 4.077s-.929 2.295-1.596 3.192a6.907 6.907 0 0 1-2.442 2.077c-.949.487-2.058.731-3.327.731-1.256 0-2.391-.263-3.404-.788-1-.526-1.853-1.263-2.558-2.211s-1.244-2.064-1.615-3.346c-.372-1.295-.558-2.699-.558-4.212zm4.635-.403v.404c0 .949.083 1.833.25 2.654.179.821.455 1.545.827 2.173a4.267 4.267 0 0 0 1.442 1.462c.603.346 1.321.519 2.154.519 1.051 0 1.917-.231 2.596-.692s1.212-1.083 1.596-1.865a8.651 8.651 0 0 0 .808-2.654v-3.481a8.476 8.476 0 0 0-.481-2.115 5.684 5.684 0 0 0-.942-1.712 3.962 3.962 0 0 0-1.481-1.154c-.577-.282-1.263-.423-2.058-.423-.846 0-1.564.18-2.154.538s-1.077.853-1.461 1.481c-.372.628-.648 1.359-.827 2.192s-.269 1.724-.269 2.673zM210.723 8.731v20.808h-4.654V8.731h4.654zm-4.962-5.462c0-.705.231-1.288.692-1.75.474-.474 1.128-.712 1.961-.712.821 0 1.468.237 1.942.712.474.462.712 1.045.712 1.75 0 .692-.237 1.269-.712 1.731s-1.122.692-1.942.692c-.833 0-1.487-.231-1.961-.692-.462-.462-.692-1.038-.692-1.731zM228.319 25.365v-9.923c0-.744-.135-1.385-.404-1.923s-.679-.955-1.231-1.25c-.538-.295-1.218-.442-2.038-.442-.756 0-1.41.128-1.962.385s-.981.603-1.288 1.038c-.308.436-.462.93-.462 1.481h-4.615c0-.821.199-1.615.596-2.385s.974-1.455 1.731-2.058 1.66-1.077 2.711-1.423c1.051-.346 2.231-.519 3.538-.519 1.564 0 2.949.263 4.154.788 1.218.526 2.173 1.321 2.865 2.385.705 1.051 1.058 2.372 1.058 3.962v9.25c0 .949.064 1.801.192 2.558.141.744.34 1.391.596 1.942v.308h-4.75c-.218-.5-.391-1.135-.519-1.904a15.595 15.595 0 0 1-.173-2.269zm.673-8.48.038 2.865h-3.327c-.859 0-1.615.083-2.269.25-.654.154-1.199.385-1.635.692s-.763.679-.981 1.115c-.218.436-.327.929-.327 1.481s.128 1.058.385 1.519c.256.449.628.801 1.116 1.058.5.256 1.103.385 1.808.385.949 0 1.776-.192 2.481-.577.718-.398 1.282-.878 1.692-1.442.41-.577.628-1.122.654-1.635l1.5 2.058c-.154.526-.417 1.09-.788 1.692s-.859 1.18-1.461 1.731c-.59.539-1.301.981-2.135 1.327-.82.346-1.769.519-2.846.519-1.359 0-2.57-.269-3.634-.808-1.064-.551-1.898-1.288-2.5-2.211-.603-.936-.904-1.994-.904-3.173 0-1.103.205-2.077.615-2.923a5.726 5.726 0 0 1 1.846-2.154c.82-.577 1.821-1.013 3-1.308 1.18-.308 2.526-.462 4.038-.462h3.635z" style="fill:var(--color1, #fff)"/>
    </symbol>
  </defs>
</svg>
